<svg width="32" height="32" viewBox="0 0 32 32" fill="none" xmlns="http://www.w3.org/2000/svg">
  <!-- Cercle principal avec dégradé -->
  <circle cx="16" cy="16" r="14" fill="url(#gradient1)" stroke="#1e40af" stroke-width="1.5"/>
  
  <!-- Livre ouvert stylisé -->
  <path d="M9 11 L16 9.5 L23 11 L23 21 L16 19.5 L9 21 Z" fill="white" opacity="0.9"/>
  <path d="M16 9.5 L16 19.5" stroke="#1e40af" stroke-width="1.2"/>
  <path d="M11 13 L15 12.6" stroke="#1e40af" stroke-width="0.8" stroke-linecap="round"/>
  <path d="M11 14.5 L15 14.1" stroke="#1e40af" stroke-width="0.8" stroke-linecap="round"/>
  <path d="M11 16 L15 15.6" stroke="#1e40af" stroke-width="0.8" stroke-linecap="round"/>
  <path d="M17 12.6 L21 13" stroke="#1e40af" stroke-width="0.8" stroke-linecap="round"/>
  <path d="M17 14.1 L21 14.5" stroke="#1e40af" stroke-width="0.8" stroke-linecap="round"/>
  <path d="M17 15.6 L21 16" stroke="#1e40af" stroke-width="0.8" stroke-linecap="round"/>
  
  <!-- Étoile académique -->
  <path d="M16 6 L16.8 8.5 L19.5 8.5 L17.3 10.2 L18.1 12.7 L16 11 L13.9 12.7 L14.7 10.2 L12.5 8.5 L15.2 8.5 Z" fill="#fbbf24" stroke="#f59e0b" stroke-width="0.4"/>
  
  <!-- Lettres E et S stylisées -->
  <g transform="translate(6, 23)">
    <text x="0" y="0" font-family="Arial, sans-serif" font-size="6" font-weight="bold" fill="white">E</text>
    <text x="4" y="0" font-family="Arial, sans-serif" font-size="6" font-weight="bold" fill="white">S</text>
  </g>
  
  <!-- Dégradés -->
  <defs>
    <linearGradient id="gradient1" x1="0%" y1="0%" x2="100%" y2="100%">
      <stop offset="0%" style="stop-color:#3b82f6;stop-opacity:1" />
      <stop offset="100%" style="stop-color:#1e40af;stop-opacity:1" />
    </linearGradient>
  </defs>
</svg>
